<svg width="24" height="24" viewBox="0 0 24 24" fill="none" xmlns="http://www.w3.org/2000/svg">
<path d="M11.9967 7.99827C9.79329 7.99827 7.99512 9.79648 7.99512 12C7.99512 14.2034 9.79329 16.0016 11.9967 16.0016C14.2002 16.0016 15.9983 14.2034 15.9983 12C15.9983 9.79648 14.2002 7.99827 11.9967 7.99827ZM23.9986 12C23.9986 10.3428 24.0136 8.70074 23.9205 7.04663C23.8275 5.12534 23.3892 3.42019 21.9843 2.01525C20.5763 0.6073 18.8742 0.172008 16.953 0.0789454C15.2959 -0.0141172 13.6538 0.000892933 11.9997 0.000892933C10.3427 0.000892933 8.70058 -0.0141172 7.0465 0.0789454C5.12524 0.172008 3.42013 0.610302 2.01521 2.01525C0.607289 3.42319 0.172005 5.12534 0.0789439 7.04663C-0.0141169 8.70374 0.000892916 10.3458 0.000892916 12C0.000892916 13.6541 -0.0141169 15.2992 0.0789439 16.9533C0.172005 18.8746 0.610291 20.5797 2.01521 21.9847C3.42313 23.3926 5.12524 23.8279 7.0465 23.921C8.70358 24.014 10.3457 23.999 11.9997 23.999C13.6568 23.999 15.2989 24.014 16.953 23.921C18.8742 23.8279 20.5793 23.3896 21.9843 21.9847C23.3922 20.5767 23.8275 18.8746 23.9205 16.9533C24.0166 15.2992 23.9986 13.6571 23.9986 12ZM11.9967 18.1571C8.58951 18.1571 5.83971 15.4072 5.83971 12C5.83971 8.59267 8.58951 5.84282 11.9967 5.84282C15.404 5.84282 18.1538 8.59267 18.1538 12C18.1538 15.4072 15.404 18.1571 11.9967 18.1571ZM18.4059 7.02862C17.6104 7.02862 16.968 6.38618 16.968 5.59065C16.968 4.79512 17.6104 4.15268 18.4059 4.15268C19.2014 4.15268 19.8439 4.79512 19.8439 5.59065C19.8441 5.77955 19.8071 5.96665 19.7349 6.14122C19.6627 6.31579 19.5568 6.4744 19.4232 6.60798C19.2897 6.74155 19.131 6.84746 18.9565 6.91964C18.7819 6.99182 18.5948 7.02885 18.4059 7.02862Z" fill="white"/>
</svg>
