<svg width="24" height="24" viewBox="0 0 24 24" fill="none" xmlns="http://www.w3.org/2000/svg">
<path d="M12 0.480011C5.63759 0.480011 0.480011 5.63759 0.480011 12C0.480011 18.3624 5.63759 23.5199 12 23.5199C18.3624 23.5199 23.5199 18.3624 23.5199 12C23.5199 5.63759 18.3624 0.480011 12 0.480011ZM9.17998 16.7748H6.84719V9.26758H9.17998V16.7748ZM7.99919 8.34598C7.26239 8.34598 6.78599 7.82399 6.78599 7.17839C6.78599 6.51959 7.27679 6.01319 8.02918 6.01319C8.78158 6.01319 9.24238 6.51959 9.25678 7.17839C9.25678 7.82399 8.78158 8.34598 7.99919 8.34598ZM17.7 16.7748H15.3672V12.6144C15.3672 11.646 15.0288 10.9884 14.1852 10.9884C13.5408 10.9884 13.158 11.4336 12.9888 11.862C12.9264 12.0144 12.9108 12.2304 12.9108 12.4452V16.7736H10.5768V11.6616C10.5768 10.7244 10.5468 9.94078 10.5156 9.26638H12.5424L12.6492 10.3092H12.696C13.0032 9.81958 13.7556 9.09718 15.0144 9.09718C16.5492 9.09718 17.7 10.1256 17.7 12.336V16.7748Z" fill="white"/>
</svg>
