<svg width="25" height="22" viewBox="0 0 25 22" fill="none" xmlns="http://www.w3.org/2000/svg">
<path d="M24.0475 10.5681L21.235 4.00563C21.1628 3.83695 21.0427 3.69319 20.8895 3.59219C20.7363 3.49119 20.5569 3.4374 20.3734 3.4375H17.5609V1.5625C17.5609 1.31386 17.4622 1.0754 17.2863 0.899588C17.1105 0.723772 16.8721 0.625 16.6234 0.625H1.62342V2.5H15.6859V14.2713C15.2587 14.5193 14.8849 14.8495 14.5859 15.2427C14.287 15.636 14.0688 16.0845 13.944 16.5625H8.0528C7.82462 15.6788 7.28196 14.9086 6.52654 14.3963C5.77112 13.884 4.85481 13.6649 3.94936 13.7799C3.04391 13.8949 2.21148 14.3362 1.60812 15.021C1.00476 15.7059 0.671875 16.5873 0.671875 17.5C0.671875 18.4127 1.00476 19.2941 1.60812 19.979C2.21148 20.6638 3.04391 21.1051 3.94936 21.2201C4.85481 21.3351 5.77112 21.116 6.52654 20.6037C7.28196 20.0914 7.82462 19.3212 8.0528 18.4375H13.944C14.148 19.2421 14.6144 19.9557 15.2695 20.4655C15.9245 20.9752 16.7309 21.252 17.5609 21.252C18.391 21.252 19.1973 20.9752 19.8524 20.4655C20.5075 19.9557 20.9739 19.2421 21.1778 18.4375H23.1859C23.4346 18.4375 23.673 18.3387 23.8488 18.1629C24.0247 17.9871 24.1234 17.7486 24.1234 17.5V10.9375C24.1235 10.8105 24.0976 10.6848 24.0475 10.5681ZM4.43592 19.375C4.06508 19.375 3.70257 19.265 3.39423 19.059C3.08589 18.853 2.84556 18.5601 2.70365 18.2175C2.56173 17.8749 2.5246 17.4979 2.59695 17.1342C2.6693 16.7705 2.84787 16.4364 3.1101 16.1742C3.37232 15.912 3.70641 15.7334 4.07013 15.661C4.43384 15.5887 4.81084 15.6258 5.15345 15.7677C5.49606 15.9096 5.7889 16.15 5.99493 16.4583C6.20095 16.7666 6.31092 17.1292 6.31092 17.5C6.31043 17.9971 6.11272 18.4738 5.7612 18.8253C5.40968 19.1768 4.93305 19.3745 4.43592 19.375ZM17.5609 5.3125H19.7547L21.7647 10H17.5609V5.3125ZM17.5609 19.375C17.1901 19.375 16.8276 19.265 16.5192 19.059C16.2109 18.853 15.9706 18.5601 15.8286 18.2175C15.6867 17.8749 15.6496 17.4979 15.722 17.1342C15.7943 16.7705 15.9729 16.4364 16.2351 16.1742C16.4973 15.912 16.8314 15.7334 17.1951 15.661C17.5588 15.5887 17.9358 15.6258 18.2785 15.7677C18.6211 15.9096 18.9139 16.15 19.1199 16.4583C19.326 16.7666 19.4359 17.1292 19.4359 17.5C19.4354 17.9971 19.2377 18.4738 18.8862 18.8253C18.5347 19.1768 18.0581 19.3745 17.5609 19.375ZM22.2484 16.5625H21.1778C20.9713 15.7595 20.5041 15.0477 19.8496 14.5387C19.195 14.0297 18.3901 13.7523 17.5609 13.75V11.875H22.2484V16.5625Z" fill="white"/>
</svg>
