<svg width="24" height="24" viewBox="0 0 24 24" fill="none" xmlns="http://www.w3.org/2000/svg">
<path d="M12 0.480011C5.63759 0.480011 0.480011 5.63759 0.480011 12C0.480011 18.3624 5.63759 23.5199 12 23.5199C18.3624 23.5199 23.5199 18.3624 23.5199 12C23.5199 5.63759 18.3624 0.480011 12 0.480011ZM16.686 9.91678C16.6908 10.0152 16.692 10.1136 16.692 10.2096C16.692 13.2096 14.4108 16.6668 10.2372 16.6668C9.00393 16.6688 7.79635 16.3146 6.75959 15.6468C6.93599 15.6684 7.11719 15.6768 7.30079 15.6768C8.36398 15.6768 9.34198 15.3156 10.1184 14.706C9.64524 14.6967 9.18679 14.54 8.80692 14.2578C8.42705 13.9756 8.14468 13.5819 7.99919 13.1316C8.33897 13.1962 8.689 13.1826 9.02278 13.092C8.50924 12.9881 8.04742 12.7099 7.71564 12.3044C7.38385 11.8989 7.20252 11.3911 7.20239 10.8672V10.8396C7.50839 11.0088 7.85879 11.112 8.23078 11.124C7.74934 10.8035 7.40853 10.3112 7.27804 9.74774C7.14755 9.18429 7.23725 8.59229 7.52879 8.09278C8.09873 8.79358 8.80949 9.36688 9.61506 9.77555C10.4206 10.1842 11.303 10.4192 12.2052 10.4652C12.0905 9.97835 12.1398 9.46727 12.3456 9.01139C12.5513 8.55551 12.9019 8.18037 13.3429 7.9443C13.7838 7.70823 14.2904 7.62445 14.7838 7.70599C15.2773 7.78753 15.73 8.02982 16.0716 8.39518C16.5794 8.29471 17.0663 8.10845 17.5116 7.84439C17.3423 8.37015 16.988 8.81659 16.5144 9.10078C16.9642 9.0466 17.4034 8.92568 17.8176 8.74198C17.5133 9.19785 17.1301 9.59571 16.686 9.91678Z" fill="white"/>
</svg>
