<svg width="26" height="26" viewBox="0 0 26 26" fill="none" xmlns="http://www.w3.org/2000/svg">
<path d="M12.9875 0.5C6.0875 0.5 0.5 6.1 0.5 13C0.5 19.9 6.0875 25.5 12.9875 25.5C19.9 25.5 25.5 19.9 25.5 13C25.5 6.1 19.9 0.5 12.9875 0.5ZM21.65 8H17.9625C17.5625 6.4375 16.9875 4.9375 16.2375 3.55C18.5375 4.3375 20.45 5.9375 21.65 8ZM13 3.05C14.0375 4.55 14.85 6.2125 15.3875 8H10.6125C11.15 6.2125 11.9625 4.55 13 3.05ZM3.325 15.5C3.125 14.7 3 13.8625 3 13C3 12.1375 3.125 11.3 3.325 10.5H7.55C7.45 11.325 7.375 12.15 7.375 13C7.375 13.85 7.45 14.675 7.55 15.5H3.325ZM4.35 18H8.0375C8.4375 19.5625 9.0125 21.0625 9.7625 22.45C7.4625 21.6625 5.55 20.075 4.35 18ZM8.0375 8H4.35C5.55 5.925 7.4625 4.3375 9.7625 3.55C9.0125 4.9375 8.4375 6.4375 8.0375 8ZM13 22.95C11.9625 21.45 11.15 19.7875 10.6125 18H15.3875C14.85 19.7875 14.0375 21.45 13 22.95ZM15.925 15.5H10.075C9.9625 14.675 9.875 13.85 9.875 13C9.875 12.15 9.9625 11.3125 10.075 10.5H15.925C16.0375 11.3125 16.125 12.15 16.125 13C16.125 13.85 16.0375 14.675 15.925 15.5ZM16.2375 22.45C16.9875 21.0625 17.5625 19.5625 17.9625 18H21.65C20.45 20.0625 18.5375 21.6625 16.2375 22.45ZM18.45 15.5C18.55 14.675 18.625 13.85 18.625 13C18.625 12.15 18.55 11.325 18.45 10.5H22.675C22.875 11.3 23 12.1375 23 13C23 13.8625 22.875 14.7 22.675 15.5H18.45Z" fill="white"/>
</svg>
