<svg width="24" height="18" viewBox="0 0 24 18" fill="none" xmlns="http://www.w3.org/2000/svg">
<path d="M12.0765 0.998505H12.21C13.443 1.003 19.6904 1.048 21.3749 1.501C21.8842 1.63926 22.3482 1.90874 22.7207 2.28251C23.0931 2.65629 23.361 3.12127 23.4974 3.631C23.6489 4.20099 23.7554 4.95549 23.8274 5.73399L23.8424 5.88999L23.8754 6.27999L23.8874 6.43599C23.9849 7.80698 23.9969 9.09098 23.9984 9.37148V9.48398C23.9969 9.77497 23.9834 11.146 23.8754 12.574L23.8634 12.7315L23.8499 12.8875C23.7749 13.7455 23.6639 14.5975 23.4974 15.2245C23.3614 15.7344 23.0937 16.1996 22.7212 16.5734C22.3486 16.9473 21.8844 17.2166 21.3749 17.3544C19.6349 17.8224 13.0215 17.8554 12.105 17.8569H11.892C11.4285 17.8569 9.51147 17.8479 7.50147 17.7789L7.24647 17.7699L7.11597 17.7639L6.85948 17.7534L6.60298 17.7429C4.93798 17.6694 3.35249 17.5509 2.62199 17.3529C2.11273 17.2152 1.64859 16.9461 1.27608 16.5726C0.903572 16.199 0.635768 15.7341 0.499498 15.2245C0.332999 14.599 0.221999 13.7455 0.146999 12.8875L0.135 12.73L0.123 12.574C0.0489712 11.5576 0.00794977 10.539 0 9.51997L0 9.33548C0.00299999 9.01298 0.015 7.89848 0.0959997 6.66848L0.1065 6.51399L0.111 6.43599L0.123 6.27999L0.155999 5.88999L0.170999 5.73399C0.242999 4.95549 0.349499 4.19949 0.500998 3.631C0.637038 3.12107 0.90474 2.65586 1.27727 2.28202C1.64979 1.90818 2.11405 1.63884 2.62349 1.501C3.35399 1.306 4.93948 1.186 6.60448 1.111L6.85948 1.1005L7.11748 1.0915L7.24647 1.087L7.50297 1.0765C8.93053 1.03057 10.3587 1.00506 11.787 1H12.0765V0.998505ZM9.59997 5.81349V13.0405L15.8354 9.42848L9.59997 5.81349Z" fill="white"/>
</svg>
